# xmcd CD database file
#
# Track frame offsets:
#	150
#	10555
#	23924
#	36383
#	50246
#	63205
#	71296
#	82117
#	109206
#	123887
#	140602
#	155429
#	176156
#	190558
#
# Disc length: 2730 seconds
#
# Revision: 0
# Processed by: cddbd v1.5.2PL0 Copyright (c) Steve Scherf et al.
# Submitted via: CDex 1.51
#
DISCID=bb0aa80e
DTITLE=Dr. John - The Blues Biography
DYEAR=2006
DGENRE=Blues
TTITLE0=Trader John
TTITLE1=Helpin' Hand
TTITLE2=Go Ahead On
TTITLE3=Loser for You Baby
TTITLE4=I Pulled the Cover Off You two Lovers
TTITLE5=New Orleans
TTITLE6=The Ear Is On Strike
TTITLE7=Crawfish Soire'e
TTITLE8=Tipitina
TTITLE9=The Time Has Come
TTITLE10=Zu Zu Man
TTITLE11=Mean Cheatin' Woman
TTITLE12=Make Your Own Bed Well
TTITLE13=A Little Closer To My Home
EXTD=YEAR: 2006
EXTT0=
EXTT1=
EXTT2=
EXTT3=
EXTT4=
EXTT5=
EXTT6=
EXTT7=
EXTT8=
EXTT9=
EXTT10=
EXTT11=
EXTT12=
EXTT13=
PLAYORDER=
